# Blender v3.4.1 OBJ File: '76mmC.blend'
# www.blender.org
mtllib 76mmC.mtl
o 円柱
v 0.000000 0.000000 -0.400000
v 0.000000 4.000000 -0.197216
v 0.078036 0.000000 -0.392314
v 0.038475 4.000000 -0.193427
v 0.153073 0.000000 -0.369552
v 0.075471 4.000000 -0.182204
v 0.222228 0.000000 -0.332588
v 0.109567 4.000000 -0.163979
v 0.282843 0.000000 -0.282843
v 0.139453 4.000000 -0.139453
v 0.332588 0.000000 -0.222228
v 0.163979 4.000000 -0.109567
v 0.369552 0.000000 -0.153073
v 0.182204 4.000000 -0.075471
v 0.392314 0.000000 -0.078036
v 0.193427 4.000000 -0.038475
v 0.400000 0.000000 -0.000000
v 0.197216 4.000000 -0.000000
v 0.392314 0.000000 0.078036
v 0.193427 4.000000 0.038475
v 0.369552 0.000000 0.153073
v 0.182204 4.000000 0.075471
v 0.332588 0.000000 0.222228
v 0.163979 4.000000 0.109567
v 0.282843 0.000000 0.282843
v 0.139453 4.000000 0.139453
v 0.222228 0.000000 0.332588
v 0.109567 4.000000 0.163979
v 0.153073 0.000000 0.369552
v 0.075471 4.000000 0.182204
v 0.078036 0.000000 0.392314
v 0.038475 4.000000 0.193427
v 0.000000 0.000000 0.400000
v 0.000000 4.000000 0.197216
v -0.078036 0.000000 0.392314
v -0.038475 4.000000 0.193427
v -0.153073 0.000000 0.369552
v -0.075471 4.000000 0.182204
v -0.222228 0.000000 0.332588
v -0.109567 4.000000 0.163979
v -0.282843 0.000000 0.282843
v -0.139453 4.000000 0.139453
v -0.332588 0.000000 0.222228
v -0.163979 4.000000 0.109567
v -0.369552 0.000000 0.153073
v -0.182204 4.000000 0.075471
v -0.392314 0.000000 0.078036
v -0.193427 4.000000 0.038475
v -0.400000 0.000000 -0.000000
v -0.197216 4.000000 -0.000000
v -0.392314 0.000000 -0.078036
v -0.193427 4.000000 -0.038475
v -0.369552 0.000000 -0.153073
v -0.182204 4.000000 -0.075471
v -0.332588 0.000000 -0.222228
v -0.163979 4.000000 -0.109567
v -0.282843 0.000000 -0.282843
v -0.139453 4.000000 -0.139453
v -0.222228 0.000000 -0.332588
v -0.109567 4.000000 -0.163979
v -0.153073 0.000000 -0.369552
v -0.075471 4.000000 -0.182204
v -0.078036 0.000000 -0.392314
v -0.038475 4.000000 -0.193427
v 0.078036 8.000000 -0.392314
v 0.000000 8.000000 -0.400000
v 0.153073 8.000000 -0.369552
v 0.222228 8.000000 -0.332588
v 0.282843 8.000000 -0.282843
v 0.332588 8.000000 -0.222228
v 0.369552 8.000000 -0.153073
v 0.392314 8.000000 -0.078036
v 0.400000 8.000000 -0.000000
v 0.392314 8.000000 0.078036
v 0.369552 8.000000 0.153073
v 0.332588 8.000000 0.222228
v 0.282843 8.000000 0.282843
v 0.222228 8.000000 0.332588
v 0.153073 8.000000 0.369552
v 0.078036 8.000000 0.392314
v 0.000000 8.000000 0.400000
v -0.078036 8.000000 0.392314
v -0.153073 8.000000 0.369552
v -0.222228 8.000000 0.332588
v -0.282843 8.000000 0.282843
v -0.332588 8.000000 0.222228
v -0.369552 8.000000 0.153073
v -0.392314 8.000000 0.078036
v -0.400000 8.000000 -0.000000
v -0.392314 8.000000 -0.078036
v -0.369552 8.000000 -0.153073
v -0.332588 8.000000 -0.222228
v -0.282843 8.000000 -0.282843
v -0.222228 8.000000 -0.332588
v -0.153073 8.000000 -0.369552
v -0.078036 8.000000 -0.392314
v 0.062353 8.000000 -0.313472
v 0.000000 8.000000 -0.319613
v 0.122311 8.000000 -0.295284
v 0.177567 8.000000 -0.265748
v 0.226000 8.000000 -0.226000
v 0.265748 8.000000 -0.177567
v 0.295284 8.000000 -0.122311
v 0.313472 8.000000 -0.062353
v 0.319613 8.000000 -0.000000
v 0.313472 8.000000 0.062353
v 0.295284 8.000000 0.122311
v 0.265748 8.000000 0.177567
v 0.226000 8.000000 0.226000
v 0.177567 8.000000 0.265748
v 0.122311 8.000000 0.295284
v 0.062353 8.000000 0.313472
v 0.000000 8.000000 0.319613
v -0.062353 8.000000 0.313472
v -0.122311 8.000000 0.295284
v -0.177567 8.000000 0.265748
v -0.226000 8.000000 0.226000
v -0.265748 8.000000 0.177567
v -0.295284 8.000000 0.122311
v -0.313472 8.000000 0.062353
v -0.319613 8.000000 -0.000000
v -0.313472 8.000000 -0.062353
v -0.295284 8.000000 -0.122311
v -0.265748 8.000000 -0.177567
v -0.226000 8.000000 -0.226000
v -0.177567 8.000000 -0.265748
v -0.122311 8.000000 -0.295284
v -0.062353 8.000000 -0.313472
v 0.062353 9.000000 -0.313472
v 0.000000 9.000000 -0.319613
v 0.122311 9.000000 -0.295284
v 0.177567 9.000000 -0.265748
v 0.226000 9.000000 -0.226000
v 0.265748 9.000000 -0.177567
v 0.295284 9.000000 -0.122311
v 0.313472 9.000000 -0.062353
v 0.319613 9.000000 -0.000000
v 0.313472 9.000000 0.062353
v 0.295284 9.000000 0.122311
v 0.265748 9.000000 0.177567
v 0.226000 9.000000 0.226000
v 0.177567 9.000000 0.265748
v 0.122311 9.000000 0.295284
v 0.062353 9.000000 0.313472
v 0.000000 9.000000 0.319613
v -0.062353 9.000000 0.313472
v -0.122311 9.000000 0.295284
v -0.177567 9.000000 0.265748
v -0.226000 9.000000 0.226000
v -0.265748 9.000000 0.177567
v -0.295284 9.000000 0.122311
v -0.313472 9.000000 0.062353
v -0.319613 9.000000 -0.000000
v -0.313472 9.000000 -0.062353
v -0.295284 9.000000 -0.122311
v -0.265748 9.000000 -0.177567
v -0.226000 9.000000 -0.226000
v -0.177567 9.000000 -0.265748
v -0.122311 9.000000 -0.295284
v -0.062353 9.000000 -0.313472
v 0.038475 9.000000 -0.193427
v 0.000000 9.000000 -0.197216
v 0.075471 9.000000 -0.182204
v 0.109567 9.000000 -0.163979
v 0.139453 9.000000 -0.139453
v 0.163979 9.000000 -0.109567
v 0.182204 9.000000 -0.075471
v 0.193427 9.000000 -0.038475
v 0.197216 9.000000 -0.000000
v 0.193427 9.000000 0.038475
v 0.182204 9.000000 0.075471
v 0.163979 9.000000 0.109567
v 0.139453 9.000000 0.139453
v 0.109567 9.000000 0.163979
v 0.075471 9.000000 0.182204
v 0.038475 9.000000 0.193427
v 0.000000 9.000000 0.197216
v -0.038475 9.000000 0.193427
v -0.075471 9.000000 0.182204
v -0.109567 9.000000 0.163979
v -0.139453 9.000000 0.139453
v -0.163979 9.000000 0.109567
v -0.182204 9.000000 0.075471
v -0.193427 9.000000 0.038475
v -0.197216 9.000000 -0.000000
v -0.193427 9.000000 -0.038475
v -0.182204 9.000000 -0.075471
v -0.163979 9.000000 -0.109567
v -0.139453 9.000000 -0.139453
v -0.109567 9.000000 -0.163979
v -0.075471 9.000000 -0.182204
v -0.038475 9.000000 -0.193427
vt 0.163082 0.000000
vt 0.163082 1.000000
vt 0.151066 1.000000
vt 0.151066 0.000000
vt 0.138813 1.000000
vt 0.138814 0.000000
vt 0.126797 1.000000
vt 0.126797 0.000000
vt 0.115477 1.000000
vt 0.115477 0.000000
vt 0.105290 1.000000
vt 0.105290 0.000000
vt 0.096626 1.000000
vt 0.096626 0.000000
vt 0.351851 0.000000
vt 0.351851 1.000000
vt 0.341664 1.000000
vt 0.341664 0.000000
vt 0.330344 1.000000
vt 0.330344 0.000000
vt 0.318328 1.000000
vt 0.318328 0.000000
vt 0.306076 1.000000
vt 0.306076 0.000000
vt 0.294059 1.000000
vt 0.294059 0.000000
vt 0.282739 1.000000
vt 0.282739 0.000000
vt 0.272552 1.000000
vt 0.272552 0.000000
vt 0.096626 0.000000
vt 0.096626 1.000000
vt 0.087963 1.000000
vt 0.087963 0.000000
vt 0.077775 1.000000
vt 0.077776 0.000000
vt 0.066456 1.000000
vt 0.066456 0.000000
vt 0.054439 1.000000
vt 0.054439 0.000000
vt 0.042187 1.000000
vt 0.042187 0.000000
vt 0.030170 1.000000
vt 0.030170 0.000000
vt 0.018851 1.000000
vt 0.018851 0.000000
vt 0.008664 1.000000
vt 0.008664 0.000000
vt 0.000000 1.000000
vt 0.000000 0.000000
vt 0.272552 0.000000
vt 0.272552 1.000000
vt 0.262365 1.000000
vt 0.262365 0.000000
vt 0.251045 1.000000
vt 0.251045 0.000000
vt 0.239028 1.000000
vt 0.239029 0.000000
vt 0.226776 1.000000
vt 0.226776 0.000000
vt 0.214760 1.000000
vt 0.214760 0.000000
vt 0.203440 1.000000
vt 0.203440 0.000000
vt 0.193253 1.000000
vt 0.193253 0.000000
vt 0.184589 1.000000
vt 0.184589 0.000000
vt 0.556957 0.658735
vt 0.552210 0.653989
vt 0.548481 0.648408
vt 0.545913 0.642207
vt 0.544603 0.635624
vt 0.544603 0.628912
vt 0.545913 0.622329
vt 0.548481 0.616128
vt 0.552210 0.610547
vt 0.556957 0.605801
vt 0.562537 0.602072
vt 0.568738 0.599504
vt 0.575321 0.598194
vt 0.582034 0.598194
vt 0.588617 0.599504
vt 0.594818 0.602072
vt 0.600398 0.605801
vt 0.605145 0.610547
vt 0.608874 0.616128
vt 0.611442 0.622329
vt 0.612752 0.628912
vt 0.612752 0.635624
vt 0.611442 0.642207
vt 0.608874 0.648408
vt 0.605145 0.653989
vt 0.600398 0.658735
vt 0.594818 0.662464
vt 0.588617 0.665033
vt 0.582034 0.666342
vt 0.575321 0.666342
vt 0.568738 0.665033
vt 0.562537 0.662464
vt 0.174402 1.000000
vt 0.174402 0.000000
vt 0.544603 0.056073
vt 0.546994 0.044056
vt 0.551682 0.032737
vt 0.558489 0.022549
vt 0.567153 0.013886
vt 0.577340 0.007079
vt 0.588660 0.002390
vt 0.600676 0.000000
vt 0.612929 0.000000
vt 0.624945 0.002390
vt 0.636265 0.007079
vt 0.646452 0.013886
vt 0.655116 0.022549
vt 0.661923 0.032737
vt 0.666611 0.044056
vt 0.669002 0.056073
vt 0.669002 0.068325
vt 0.666611 0.080342
vt 0.661923 0.091661
vt 0.655116 0.101849
vt 0.646452 0.110512
vt 0.636265 0.117319
vt 0.624945 0.122008
vt 0.612929 0.124398
vt 0.600676 0.124398
vt 0.588660 0.122008
vt 0.577340 0.117319
vt 0.567153 0.110512
vt 0.558489 0.101849
vt 0.551682 0.091661
vt 0.546994 0.080342
vt 0.544603 0.068325
vt 0.557103 0.181702
vt 0.557103 0.191492
vt 0.544603 0.192723
vt 0.544603 0.180471
vt 0.559013 0.201094
vt 0.546994 0.204740
vt 0.562760 0.210138
vt 0.551682 0.216059
vt 0.568199 0.218278
vt 0.558489 0.226247
vt 0.575121 0.225201
vt 0.567153 0.234910
vt 0.583261 0.230640
vt 0.577340 0.241717
vt 0.592306 0.234386
vt 0.588660 0.246406
vt 0.601907 0.236296
vt 0.600676 0.248796
vt 0.611697 0.236296
vt 0.612929 0.248796
vt 0.621299 0.234386
vt 0.624945 0.246406
vt 0.630344 0.230640
vt 0.636265 0.241717
vt 0.638484 0.225201
vt 0.646452 0.234910
vt 0.645406 0.218278
vt 0.655116 0.226247
vt 0.650845 0.210138
vt 0.661923 0.216059
vt 0.654592 0.201094
vt 0.666611 0.204740
vt 0.656502 0.191492
vt 0.669002 0.192723
vt 0.656502 0.181702
vt 0.669002 0.180471
vt 0.654592 0.172100
vt 0.666611 0.168454
vt 0.650845 0.163056
vt 0.661923 0.157135
vt 0.645406 0.154916
vt 0.655116 0.146948
vt 0.638484 0.147993
vt 0.646452 0.138284
vt 0.630344 0.142554
vt 0.636265 0.131477
vt 0.621299 0.138808
vt 0.624945 0.126788
vt 0.611697 0.136898
vt 0.612929 0.124398
vt 0.601908 0.136898
vt 0.600676 0.124398
vt 0.592306 0.138808
vt 0.588660 0.126788
vt 0.583261 0.142554
vt 0.577340 0.131477
vt 0.575121 0.147993
vt 0.567153 0.138284
vt 0.568199 0.154916
vt 0.558489 0.146948
vt 0.562760 0.163056
vt 0.551682 0.157135
vt 0.559013 0.172100
vt 0.546994 0.168454
vt 0.667989 0.473194
vt 0.658387 0.473194
vt 0.658387 0.348194
vt 0.667989 0.348194
vt 0.648597 0.473194
vt 0.648597 0.348194
vt 0.638996 0.473194
vt 0.638996 0.348194
vt 0.629951 0.473194
vt 0.629951 0.348194
vt 0.621811 0.473194
vt 0.621811 0.348194
vt 0.614888 0.473194
vt 0.614888 0.348194
vt 0.614889 0.598194
vt 0.606749 0.598194
vt 0.606749 0.473194
vt 0.614889 0.473194
vt 0.597704 0.598194
vt 0.597704 0.473194
vt 0.588102 0.598194
vt 0.588102 0.473194
vt 0.578312 0.598194
vt 0.578312 0.473194
vt 0.568711 0.598194
vt 0.568711 0.473194
vt 0.559666 0.598194
vt 0.559666 0.473194
vt 0.551526 0.598194
vt 0.551526 0.473194
vt 0.544603 0.598194
vt 0.544603 0.473194
vt 0.614888 0.473194
vt 0.606749 0.473194
vt 0.606749 0.348194
vt 0.614888 0.348194
vt 0.597704 0.473194
vt 0.597704 0.348194
vt 0.588102 0.473194
vt 0.588102 0.348194
vt 0.578312 0.473194
vt 0.578312 0.348194
vt 0.568711 0.473194
vt 0.568711 0.348194
vt 0.559666 0.473194
vt 0.559666 0.348194
vt 0.551526 0.473194
vt 0.551526 0.348194
vt 0.544603 0.473194
vt 0.544603 0.348194
vt 0.685174 0.598194
vt 0.677034 0.598194
vt 0.677034 0.473194
vt 0.685174 0.473194
vt 0.667989 0.598194
vt 0.667989 0.473194
vt 0.658387 0.598194
vt 0.658387 0.473194
vt 0.648597 0.598194
vt 0.648597 0.473194
vt 0.638996 0.598194
vt 0.638996 0.473194
vt 0.629951 0.598194
vt 0.629951 0.473194
vt 0.621811 0.598194
vt 0.621811 0.473194
vt 0.614889 0.598194
vt 0.614889 0.473194
vt 0.685174 0.473194
vt 0.677034 0.473194
vt 0.677034 0.348194
vt 0.685174 0.348194
vt 0.564106 0.314635
vt 0.567835 0.320216
vt 0.555699 0.330177
vt 0.550260 0.322037
vt 0.572582 0.324962
vt 0.562621 0.337099
vt 0.578162 0.328691
vt 0.570761 0.342538
vt 0.584363 0.331260
vt 0.579806 0.346284
vt 0.590946 0.332569
vt 0.589408 0.348194
vt 0.597659 0.332569
vt 0.599197 0.348194
vt 0.604242 0.331260
vt 0.608799 0.346284
vt 0.610443 0.328691
vt 0.617844 0.342538
vt 0.616023 0.324962
vt 0.625984 0.337099
vt 0.620770 0.320216
vt 0.632906 0.330177
vt 0.624499 0.314635
vt 0.638345 0.322037
vt 0.627067 0.308434
vt 0.642092 0.312992
vt 0.628377 0.301851
vt 0.644002 0.303390
vt 0.628377 0.295139
vt 0.644002 0.293600
vt 0.627067 0.288556
vt 0.642092 0.283999
vt 0.624499 0.282355
vt 0.638345 0.274954
vt 0.620770 0.276774
vt 0.632906 0.266814
vt 0.616023 0.272028
vt 0.625984 0.259892
vt 0.610443 0.268299
vt 0.617844 0.254453
vt 0.604242 0.265731
vt 0.608799 0.250706
vt 0.597659 0.264421
vt 0.599197 0.248796
vt 0.590946 0.264421
vt 0.589408 0.248796
vt 0.584363 0.265731
vt 0.579806 0.250706
vt 0.578162 0.268299
vt 0.570761 0.254453
vt 0.572582 0.272028
vt 0.562621 0.259892
vt 0.567835 0.276774
vt 0.555699 0.266814
vt 0.564106 0.282355
vt 0.550260 0.274954
vt 0.561538 0.288556
vt 0.546513 0.283999
vt 0.560228 0.295139
vt 0.544603 0.293600
vt 0.560228 0.301851
vt 0.544603 0.303390
vt 0.561538 0.308434
vt 0.546513 0.312992
vt 0.508197 0.000000
vt 0.514780 0.000000
vt 0.514780 0.625000
vt 0.508197 0.625000
vt 0.521492 0.000000
vt 0.521492 0.625000
vt 0.528075 0.000000
vt 0.528075 0.625000
vt 0.534276 0.000000
vt 0.534276 0.625000
vt 0.539857 0.000000
vt 0.539857 0.625000
vt 0.544603 0.000000
vt 0.544603 0.625000
vt 0.351851 0.000000
vt 0.357432 0.000000
vt 0.357432 0.625000
vt 0.351851 0.625000
vt 0.363633 0.000000
vt 0.363633 0.625000
vt 0.370216 0.000000
vt 0.370216 0.625000
vt 0.376928 0.000000
vt 0.376928 0.625000
vt 0.383511 0.000000
vt 0.383511 0.625000
vt 0.389712 0.000000
vt 0.389712 0.625000
vt 0.395293 0.000000
vt 0.395293 0.625000
vt 0.400039 0.000000
vt 0.400039 0.625000
vt 0.448227 0.000000
vt 0.453808 0.000000
vt 0.453808 0.625000
vt 0.448227 0.625000
vt 0.460009 0.000000
vt 0.460009 0.625000
vt 0.466592 0.000000
vt 0.466592 0.625000
vt 0.473304 0.000000
vt 0.473304 0.625000
vt 0.479887 0.000000
vt 0.479887 0.625000
vt 0.486088 0.000000
vt 0.486088 0.625000
vt 0.491669 0.000000
vt 0.491669 0.625000
vt 0.496415 0.000000
vt 0.496415 0.625000
vt 0.400039 0.000000
vt 0.405620 0.000000
vt 0.405620 0.625000
vt 0.400039 0.625000
vt 0.411821 0.000000
vt 0.411821 0.625000
vt 0.418404 0.000000
vt 0.418404 0.625000
vt 0.425116 0.000000
vt 0.425116 0.625000
vt 0.431699 0.000000
vt 0.431699 0.625000
vt 0.437900 0.000000
vt 0.437900 0.625000
vt 0.443481 0.000000
vt 0.443481 0.625000
vt 0.448227 0.000000
vt 0.448227 0.625000
vt 0.496415 0.000000
vt 0.501996 0.000000
vt 0.501996 0.625000
vt 0.496415 0.625000
vn 0.0000 0.0000 -1.0000
vn 0.1951 0.0000 -0.9808
vn 0.3827 0.0000 -0.9239
vn 0.5556 0.0000 -0.8315
vn 0.7071 0.0000 -0.7071
vn 0.8315 0.0000 -0.5556
vn 0.9239 0.0000 -0.3827
vn 0.9808 0.0000 -0.1951
vn 1.0000 0.0000 0.0000
vn 0.9808 0.0000 0.1951
vn 0.9239 0.0000 0.3827
vn 0.8315 0.0000 0.5556
vn 0.7071 0.0000 0.7071
vn 0.5556 0.0000 0.8315
vn 0.3827 0.0000 0.9239
vn 0.1951 0.0000 0.9808
vn 0.0000 0.0000 1.0000
vn -0.1951 0.0000 0.9808
vn -0.3827 0.0000 0.9239
vn -0.5556 0.0000 0.8315
vn -0.7071 0.0000 0.7071
vn -0.8315 0.0000 0.5556
vn -0.9239 0.0000 0.3827
vn -0.9808 0.0000 0.1951
vn -1.0000 0.0000 0.0000
vn -0.9808 0.0000 -0.1951
vn -0.9239 0.0000 -0.3827
vn -0.8315 0.0000 -0.5556
vn -0.7071 0.0000 -0.7071
vn -0.5556 0.0000 -0.8315
vn -0.3827 0.0000 -0.9239
vn 0.0000 1.0000 0.0000
vn -0.1951 0.0000 -0.9808
vn 0.0000 -1.0000 0.0000
usemtl None
s 1
f 1/1/1 66/2/1 65/3/2 3/4/2
f 3/4/2 65/3/2 67/5/3 5/6/3
f 5/6/3 67/5/3 68/7/4 7/8/4
f 7/8/4 68/7/4 69/9/5 9/10/5
f 9/10/5 69/9/5 70/11/6 11/12/6
f 11/12/6 70/11/6 71/13/7 13/14/7
f 13/15/7 71/16/7 72/17/8 15/18/8
f 15/18/8 72/17/8 73/19/9 17/20/9
f 17/20/9 73/19/9 74/21/10 19/22/10
f 19/22/10 74/21/10 75/23/11 21/24/11
f 21/24/11 75/23/11 76/25/12 23/26/12
f 23/26/12 76/25/12 77/27/13 25/28/13
f 25/28/13 77/27/13 78/29/14 27/30/14
f 27/31/14 78/32/14 79/33/15 29/34/15
f 29/34/15 79/33/15 80/35/16 31/36/16
f 31/36/16 80/35/16 81/37/17 33/38/17
f 33/38/17 81/37/17 82/39/18 35/40/18
f 35/40/18 82/39/18 83/41/19 37/42/19
f 37/42/19 83/41/19 84/43/20 39/44/20
f 39/44/20 84/43/20 85/45/21 41/46/21
f 41/46/21 85/45/21 86/47/22 43/48/22
f 43/48/22 86/47/22 87/49/23 45/50/23
f 45/51/23 87/52/23 88/53/24 47/54/24
f 47/54/24 88/53/24 89/55/25 49/56/25
f 49/56/25 89/55/25 90/57/26 51/58/26
f 51/58/26 90/57/26 91/59/27 53/60/27
f 53/60/27 91/59/27 92/61/28 55/62/28
f 55/62/28 92/61/28 93/63/29 57/64/29
f 57/64/29 93/63/29 94/65/30 59/66/30
f 59/66/30 94/65/30 95/67/31 61/68/31
f 4/69/32 2/70/32 64/71/32 62/72/32 60/73/32 58/74/32 56/75/32 54/76/32 52/77/32 50/78/32 48/79/32 46/80/32 44/81/32 42/82/32 40/83/32 38/84/32 36/85/32 34/86/32 32/87/32 30/88/32 28/89/32 26/90/32 24/91/32 22/92/32 20/93/32 18/94/32 16/95/32 14/96/32 12/97/32 10/98/32 8/99/32 6/100/32
f 61/68/31 95/67/31 96/101/33 63/102/33
f 63/102/33 96/101/33 66/2/1 1/1/1
f 1/103/34 3/104/34 5/105/34 7/106/34 9/107/34 11/108/34 13/109/34 15/110/34 17/111/34 19/112/34 21/113/34 23/114/34 25/115/34 27/116/34 29/117/34 31/118/34 33/119/34 35/120/34 37/121/34 39/122/34 41/123/34 43/124/34 45/125/34 47/126/34 49/127/34 51/128/34 53/129/34 55/130/34 57/131/34 59/132/34 61/133/34 63/134/34
f 98/135/32 97/136/32 65/137/32 66/138/32
f 97/136/32 99/139/32 67/140/32 65/137/32
f 99/139/32 100/141/32 68/142/32 67/140/32
f 100/141/32 101/143/32 69/144/32 68/142/32
f 101/143/32 102/145/32 70/146/32 69/144/32
f 102/145/32 103/147/32 71/148/32 70/146/32
f 103/147/32 104/149/32 72/150/32 71/148/32
f 104/149/32 105/151/32 73/152/32 72/150/32
f 105/151/32 106/153/32 74/154/32 73/152/32
f 106/153/32 107/155/32 75/156/32 74/154/32
f 107/155/32 108/157/32 76/158/32 75/156/32
f 108/157/32 109/159/32 77/160/32 76/158/32
f 109/159/32 110/161/32 78/162/32 77/160/32
f 110/161/32 111/163/32 79/164/32 78/162/32
f 111/163/32 112/165/32 80/166/32 79/164/32
f 112/165/32 113/167/32 81/168/32 80/166/32
f 113/167/32 114/169/32 82/170/32 81/168/32
f 114/169/32 115/171/32 83/172/32 82/170/32
f 115/171/32 116/173/32 84/174/32 83/172/32
f 116/173/32 117/175/32 85/176/32 84/174/32
f 117/175/32 118/177/32 86/178/32 85/176/32
f 118/177/32 119/179/32 87/180/32 86/178/32
f 119/179/32 120/181/32 88/182/32 87/180/32
f 120/181/32 121/183/32 89/184/32 88/182/32
f 121/183/32 122/185/32 90/186/32 89/184/32
f 122/185/32 123/187/32 91/188/32 90/186/32
f 123/187/32 124/189/32 92/190/32 91/188/32
f 124/189/32 125/191/32 93/192/32 92/190/32
f 125/191/32 126/193/32 94/194/32 93/192/32
f 126/193/32 127/195/32 95/196/32 94/194/32
f 127/195/32 128/197/32 96/198/32 95/196/32
f 128/197/32 98/135/32 66/138/32 96/198/32
f 130/199/1 129/200/2 97/201/2 98/202/1
f 129/200/2 131/203/3 99/204/3 97/201/2
f 131/203/3 132/205/4 100/206/4 99/204/3
f 132/205/4 133/207/5 101/208/5 100/206/4
f 133/207/5 134/209/6 102/210/6 101/208/5
f 134/209/6 135/211/7 103/212/7 102/210/6
f 135/213/7 136/214/8 104/215/8 103/216/7
f 136/214/8 137/217/9 105/218/9 104/215/8
f 137/217/9 138/219/10 106/220/10 105/218/9
f 138/219/10 139/221/11 107/222/11 106/220/10
f 139/221/11 140/223/12 108/224/12 107/222/11
f 140/223/12 141/225/13 109/226/13 108/224/12
f 141/225/13 142/227/14 110/228/14 109/226/13
f 142/227/14 143/229/15 111/230/15 110/228/14
f 143/231/15 144/232/16 112/233/16 111/234/15
f 144/232/16 145/235/17 113/236/17 112/233/16
f 145/235/17 146/237/18 114/238/18 113/236/17
f 146/237/18 147/239/19 115/240/19 114/238/18
f 147/239/19 148/241/20 116/242/20 115/240/19
f 148/241/20 149/243/21 117/244/21 116/242/20
f 149/243/21 150/245/22 118/246/22 117/244/21
f 150/245/22 151/247/23 119/248/23 118/246/22
f 151/249/23 152/250/24 120/251/24 119/252/23
f 152/250/24 153/253/25 121/254/25 120/251/24
f 153/253/25 154/255/26 122/256/26 121/254/25
f 154/255/26 155/257/27 123/258/27 122/256/26
f 155/257/27 156/259/28 124/260/28 123/258/27
f 156/259/28 157/261/29 125/262/29 124/260/28
f 157/261/29 158/263/30 126/264/30 125/262/29
f 158/263/30 159/265/31 127/266/31 126/264/30
f 159/267/31 160/268/33 128/269/33 127/270/31
f 160/268/33 130/199/1 98/202/1 128/269/33
f 162/271/32 161/272/32 129/273/32 130/274/32
f 161/272/32 163/275/32 131/276/32 129/273/32
f 163/275/32 164/277/32 132/278/32 131/276/32
f 164/277/32 165/279/32 133/280/32 132/278/32
f 165/279/32 166/281/32 134/282/32 133/280/32
f 166/281/32 167/283/32 135/284/32 134/282/32
f 167/283/32 168/285/32 136/286/32 135/284/32
f 168/285/32 169/287/32 137/288/32 136/286/32
f 169/287/32 170/289/32 138/290/32 137/288/32
f 170/289/32 171/291/32 139/292/32 138/290/32
f 171/291/32 172/293/32 140/294/32 139/292/32
f 172/293/32 173/295/32 141/296/32 140/294/32
f 173/295/32 174/297/32 142/298/32 141/296/32
f 174/297/32 175/299/32 143/300/32 142/298/32
f 175/299/32 176/301/32 144/302/32 143/300/32
f 176/301/32 177/303/32 145/304/32 144/302/32
f 177/303/32 178/305/32 146/306/32 145/304/32
f 178/305/32 179/307/32 147/308/32 146/306/32
f 179/307/32 180/309/32 148/310/32 147/308/32
f 180/309/32 181/311/32 149/312/32 148/310/32
f 181/311/32 182/313/32 150/314/32 149/312/32
f 182/313/32 183/315/32 151/316/32 150/314/32
f 183/315/32 184/317/32 152/318/32 151/316/32
f 184/317/32 185/319/32 153/320/32 152/318/32
f 185/319/32 186/321/32 154/322/32 153/320/32
f 186/321/32 187/323/32 155/324/32 154/322/32
f 187/323/32 188/325/32 156/326/32 155/324/32
f 188/325/32 189/327/32 157/328/32 156/326/32
f 189/327/32 190/329/32 158/330/32 157/328/32
f 190/329/32 191/331/32 159/332/32 158/330/32
f 191/331/32 192/333/32 160/334/32 159/332/32
f 192/333/32 162/271/32 130/274/32 160/334/32
f 2/335/17 4/336/18 161/337/18 162/338/17
f 4/336/18 6/339/19 163/340/19 161/337/18
f 6/339/19 8/341/20 164/342/20 163/340/19
f 8/341/20 10/343/21 165/344/21 164/342/20
f 10/343/21 12/345/22 166/346/22 165/344/21
f 12/345/22 14/347/23 167/348/23 166/346/22
f 14/349/23 16/350/24 168/351/24 167/352/23
f 16/350/24 18/353/25 169/354/25 168/351/24
f 18/353/25 20/355/26 170/356/26 169/354/25
f 20/355/26 22/357/27 171/358/27 170/356/26
f 22/357/27 24/359/28 172/360/28 171/358/27
f 24/359/28 26/361/29 173/362/29 172/360/28
f 26/361/29 28/363/30 174/364/30 173/362/29
f 28/363/30 30/365/31 175/366/31 174/364/30
f 30/367/31 32/368/33 176/369/33 175/370/31
f 32/368/33 34/371/1 177/372/1 176/369/33
f 34/371/1 36/373/2 178/374/2 177/372/1
f 36/373/2 38/375/3 179/376/3 178/374/2
f 38/375/3 40/377/4 180/378/4 179/376/3
f 40/377/4 42/379/5 181/380/5 180/378/4
f 42/379/5 44/381/6 182/382/6 181/380/5
f 44/381/6 46/383/7 183/384/7 182/382/6
f 46/385/7 48/386/8 184/387/8 183/388/7
f 48/386/8 50/389/9 185/390/9 184/387/8
f 50/389/9 52/391/10 186/392/10 185/390/9
f 52/391/10 54/393/11 187/394/11 186/392/10
f 54/393/11 56/395/12 188/396/12 187/394/11
f 56/395/12 58/397/13 189/398/13 188/396/12
f 58/397/13 60/399/14 190/400/14 189/398/13
f 60/399/14 62/401/15 191/402/15 190/400/14
f 62/403/15 64/404/16 192/405/16 191/406/15
f 64/404/16 2/335/17 162/338/17 192/405/16
