# Blender 3.4.1
# www.blender.org
mtllib SpotCamera.mtl
o Cube
v 0.275000 1.050000 -0.275000
v 0.500000 0.000000 -0.500000
v 0.275000 1.050000 0.275000
v 0.500000 0.000000 0.500000
v -0.275000 1.050000 -0.275000
v -0.500000 0.000000 -0.500000
v -0.275000 1.050000 0.275000
v -0.500000 0.000000 0.500000
v 0.500000 1.000000 0.500000
v -0.500000 1.000000 0.500000
v 0.500000 1.000000 -0.500000
v -0.500000 1.000000 -0.500000
v 0.375000 1.000000 0.375000
v -0.375000 1.000000 0.375000
v 0.375000 1.000000 -0.375000
v -0.375000 1.000000 -0.375000
v 0.375000 1.000000 0.375000
v -0.375000 1.000000 0.375000
v 0.375000 1.000000 -0.375000
v -0.375000 1.000000 -0.375000
v 0.412500 1.125000 0.412500
v -0.412500 1.125000 0.412500
v 0.412500 1.125000 -0.412500
v -0.412500 1.125000 -0.412500
v 0.302500 1.125000 0.302500
v -0.302500 1.125000 0.302500
v 0.302500 1.125000 -0.302500
v -0.302500 1.125000 -0.302500
vn -0.0000 1.0000 -0.0000
vn -0.0000 -0.0000 1.0000
vn -1.0000 -0.0000 -0.0000
vn -0.0000 -1.0000 -0.0000
vn 1.0000 -0.0000 -0.0000
vn -0.0000 -0.0000 -1.0000
vn -0.9389 0.3443 -0.0000
vn -0.0000 -0.2873 0.9578
vn -0.0000 0.3443 0.9389
vn -0.9578 -0.2873 -0.0000
vn -0.0000 -0.2873 -0.9578
vn 0.9578 -0.2873 -0.0000
vn 0.9389 0.3443 -0.0000
vn -0.0000 0.3443 -0.9389
vt 0.821875 0.821875
vt 0.270322 0.222094
vt 0.209584 0.210938
vt 0.821875 0.959375
vt 0.270322 0.249364
vt 0.209584 0.260520
vt 0.959375 0.821875
vt 0.297592 0.222094
vt 0.160002 0.210938
vt 0.209584 0.161355
vt 0.959375 0.959375
vt 0.297592 0.249364
vt 0.209584 0.310102
vt 0.209584 0.111773
vt 0.160002 0.260520
vt 0.259166 0.260520
vt 0.259166 0.310102
vt 0.259166 0.111773
vt 0.308748 0.260520
vt 0.259166 0.210938
vt 0.259166 0.161355
vt 0.308748 0.210938
vt 0.265364 0.254322
vt 0.302551 0.254322
vt 0.265364 0.217135
vt 0.302551 0.217135
vt 0.265364 0.254322
vt 0.302551 0.254322
vt 0.265364 0.217135
vt 0.302551 0.217135
vt 0.265364 0.254322
vt 0.302551 0.254322
vt 0.265364 0.217135
vt 0.302551 0.217135
vt 0.270322 0.249364
vt 0.297592 0.249364
vt 0.270322 0.222094
vt 0.297592 0.222094
s 0
usemtl Material
f 1/1/1 5/7/1 7/11/1 3/4/1
f 4/6/2 9/16/2 10/17/2 8/13/2
f 8/14/3 10/18/3 12/21/3 6/10/3
f 6/9/4 2/3/4 4/6/4 8/15/4
f 2/3/5 11/20/5 9/16/5 4/6/5
f 6/10/6 12/21/6 11/20/6 2/3/6
f 13/23/1 14/24/1 10/19/1 9/16/1
f 15/25/1 13/23/1 9/16/1 11/20/1
f 14/24/1 16/26/1 12/22/1 10/19/1
f 16/26/1 15/25/1 11/20/1 12/22/1
f 17/27/1 18/28/1 14/24/1 13/23/1
f 19/29/1 17/27/1 13/23/1 15/25/1
f 18/28/1 20/30/1 16/26/1 14/24/1
f 20/30/1 19/29/1 15/25/1 16/26/1
f 1/2/7 3/5/7 25/35/7 27/37/7
f 18/28/8 17/27/8 21/31/8 22/32/8
f 5/8/9 1/2/9 27/37/9 28/38/9
f 20/30/10 18/28/10 22/32/10 24/34/10
f 25/35/1 26/36/1 22/32/1 21/31/1
f 27/37/1 25/35/1 21/31/1 23/33/1
f 26/36/1 28/38/1 24/34/1 22/32/1
f 28/38/1 27/37/1 23/33/1 24/34/1
f 19/29/11 20/30/11 24/34/11 23/33/11
f 17/27/12 19/29/12 23/33/12 21/31/12
f 7/12/13 5/8/13 28/38/13 26/36/13
f 3/5/14 7/12/14 26/36/14 25/35/14
